<svg xmlns="http://www.w3.org/2000/svg" viewBox="0 0 39.4 50">
  <path d="M 19.9,0 19.7,0 0,2.1 0,38.3 19.7,50 39.4,38.3 39.4,2.1 19.9,0 Z M 36.9,36.8 19.7,47 2.5,36.8 2.5,22 l 17.1,10.2 0,1.8 -11.7,-7 0,1.8 11.8,7.1 0,1.9 -11.8,-7 0,1.8 11.8,7 11.9,-7.1 0,-7.6 5.3,-3.2 0,15.1 z m -0.1,-17 -4.7,2.8 -2.2,1.3 -10.3,-6.1 0,1.8 8.8,5.3 -0.1,0 -0.2,0.1 -1.3,0.7 -7.3,-4.3 0,1.8 5.8,3.4 -1.4,0.9 -4.3,-2.6 0,1.8 2.9,1.7 -2.9,1.7 -17,-10.1 17,-10.2 17.2,10 z M 36.9,18 19.6,7.8 2.5,18 2.5,4.4 19.7,2.6 36.9,4.4 36.9,18 Z"/>
</svg>
