<?xml version="1.0" encoding="UTF-8" standalone="no"?>
<svg
   xmlns:dc="http://purl.org/dc/elements/1.1/"
   xmlns:cc="http://creativecommons.org/ns#"
   xmlns:rdf="http://www.w3.org/1999/02/22-rdf-syntax-ns#"
   xmlns:svg="http://www.w3.org/2000/svg"
   xmlns="http://www.w3.org/2000/svg"
   xmlns:sodipodi="http://sodipodi.sourceforge.net/DTD/sodipodi-0.dtd"
   xmlns:inkscape="http://www.inkscape.org/namespaces/inkscape"
   viewBox="0 0 128 24"
   id="svg2"
   version="1.1"
   inkscape:version="0.91 r13725"
   sodipodi:docname="logo-text.svg"
   width="128"
   height="24"
   style="fill:#111111">
  <metadata
     id="metadata26">
    <rdf:RDF>
      <cc:Work
         rdf:about="">
        <dc:format>image/svg+xml</dc:format>
        <dc:type
           rdf:resource="http://purl.org/dc/dcmitype/StillImage" />
        <dc:title></dc:title>
      </cc:Work>
    </rdf:RDF>
  </metadata>
  <defs
     id="defs24" />
  <sodipodi:namedview
     pagecolor="#ffffff"
     bordercolor="#666666"
     borderopacity="1"
     objecttolerance="10"
     gridtolerance="10"
     guidetolerance="10"
     inkscape:pageopacity="0"
     inkscape:pageshadow="2"
     inkscape:window-width="1920"
     inkscape:window-height="1020"
     id="namedview22"
     showgrid="false"
     fit-margin-top="0"
     fit-margin-left="0"
     fit-margin-right="0"
     fit-margin-bottom="0"
     inkscape:zoom="8.2332433"
     inkscape:cx="65.785218"
     inkscape:cy="26.660439"
     inkscape:window-x="0"
     inkscape:window-y="0"
     inkscape:window-maximized="1"
     inkscape:current-layer="svg2" />
  <g
     id="g4154"
     transform="matrix(1.2749004,0,0,1.2749004,0,-1.8728e-4)">
    <path
       id="path4"
       d="M 1.2,16.6 C 0.4,15.6 0,14.1 0,12.2 L 0,5.9 C 0,4 0.4,2.5 1.2,1.5 2,0.5 3.4,0 5.4,0 c 1.9,0 3.2,0.4 4,1.3 0.8,0.9 1.2,2.1 1.2,3.8 l 0,1.5 -4,0 0,-1.8 C 6.6,4.1 6.5,3.6 6.4,3.2 6.3,2.9 5.9,2.7 5.4,2.7 4.9,2.7 4.4,2.9 4.3,3.3 4.1,3.7 4,4.2 4,4.9 l 0,8.3 c 0,0.7 0.1,1.2 0.3,1.6 0.2,0.4 0.5,0.6 1.1,0.6 0.5,0 0.9,-0.2 1,-0.6 0.2,-0.4 0.2,-0.9 0.2,-1.6 l 0,-1.8 3.9,0 0,1.5 c 0,1.6 -0.4,2.9 -1.2,3.9 -0.8,0.9 -2.1,1.4 -4,1.4 C 3.4,18.1 2,17.6 1.2,16.6 Z"
       inkscape:connector-curvature="0" />
    <path
       id="path6"
       d="m 15.2,0.2 4.5,0 3.3,17.6 -3.6,0 -0.6,-3.7 -2.6,0 -0.6,3.7 -3.7,0 3.3,-17.6 z m 3.2,11.6 -0.9,-6.9 -0.9,6.9 1.8,0 z"
       inkscape:connector-curvature="0" />
    <path
       id="path8"
       d="m 25.8,3.1 -2.7,0 0,-2.9 9.3,0 0,2.9 -2.7,0 0,14.7 -4,0 0,-14.7 z"
       inkscape:connector-curvature="0" />
    <path
       id="path10"
       d="m 39.5,0.2 6.9,0 0,1.8 -4.4,0 0,5.8 3.6,0 0,1.7 -3.6,0 0,6.4 4.5,0 0,1.8 -7,0 0,-17.5 z"
       inkscape:connector-curvature="0" />
    <path
       id="path12"
       d="m 48.5,0.2 1.7,0 5.1,11.7 0,-11.7 2.1,0 0,17.6 -1.6,0 -5.1,-12 0,12 -2.1,0 0,-17.6 z"
       inkscape:connector-curvature="0" />
    <path
       id="path14"
       d="m 59.8,0.2 6.9,0 0,1.8 -4.4,0 0,5.8 3.6,0 0,1.7 -3.6,0 0,6.4 4.5,0 0,1.8 -7,0 0,-17.5 z"
       inkscape:connector-curvature="0" />
    <path
       id="path16"
       d="m 68.8,0.2 3.6,0 c 1.8,0 3.1,0.4 4,1.1 0.9,0.7 1.3,1.9 1.3,3.6 0,2.3 -0.7,3.6 -2.2,4.1 l 2.5,8.8 -2.4,0 -2.3,-8.3 -1.9,0 0,8.3 -2.5,0 0,-17.6 z m 3.4,7.6 C 73.3,7.8 74,7.6 74.5,7.2 75,6.8 75.2,6 75.2,4.9 75.2,4.2 75.1,3.6 75,3.2 74.9,2.8 74.6,2.5 74.1,2.3 73.7,2.1 73.1,2 72.4,2 l -1.1,0 0,5.8 0.9,0 z"
       inkscape:connector-curvature="0" />
    <path
       id="path18"
       d="M 80.8,16.5 C 80.1,15.5 79.7,14 79.7,12 l 0,-5.8 c 0,-1.4 0.1,-2.5 0.4,-3.4 0.3,-0.9 0.8,-1.5 1.5,-2 0.7,-0.5 1.7,-0.7 2.9,-0.7 1.6,0 2.8,0.4 3.6,1.2 0.7,0.8 1.1,2.1 1.1,3.9 l 0,0.7 -2.3,0 0,-0.6 C 86.9,4.5 86.8,3.8 86.7,3.4 86.6,2.9 86.4,2.6 86,2.4 85.7,2.1 85.2,2 84.6,2 83.9,2 83.4,2.2 83.1,2.5 82.8,2.8 82.5,3.2 82.4,3.7 82.3,4.2 82.3,4.9 82.3,5.8 l 0,6.5 c 0,1.3 0.2,2.3 0.5,2.9 0.3,0.6 1,0.9 1.9,0.9 0.9,0 1.6,-0.3 1.9,-1 0.3,-0.6 0.5,-1.7 0.5,-3.1 l 0,-1.2 -2.3,0 0,-1.7 4.5,0 0,8.7 -1.6,0 -0.2,-2 c -0.6,1.5 -1.6,2.2 -3.2,2.2 -1.6,0 -2.8,-0.5 -3.5,-1.5 z"
       inkscape:connector-curvature="0" />
    <path
       id="path20"
       d="m 94.3,11.6 -3.9,-11.4 2.3,0 2.7,8.5 2.7,-8.5 2.3,0 -3.8,11.4 0,6.2 -2.4,0 0,-6.2 z"
       inkscape:connector-curvature="0" />
  </g>
</svg>
