<svg xmlns="http://www.w3.org/2000/svg" viewBox="0 0 128 24" width="128" height="24" fill="#111"><path d="M1.53 21.163C.51 19.888 0 17.976 0 15.553v-8.03C0 5.1.51 3.188 1.53 1.913 2.55.637 4.335 0 6.884 0c2.423 0 4.08.51 5.1 1.657 1.02 1.148 1.53 2.677 1.53 4.845v1.912h-5.1V6.12a7.99 7.99 0 0 0-.255-2.04c-.127-.382-.637-.637-1.275-.637-.637 0-1.274.255-1.402.765-.255.51-.382 1.147-.382 2.04v10.581c0 .893.127 1.53.382 2.04s.638.765 1.402.765c.638 0 1.148-.255 1.275-.765.255-.51.255-1.147.255-2.04v-2.294h4.972v1.912c0 2.04-.51 3.697-1.53 4.972-1.02 1.148-2.677 1.785-5.099 1.785-2.422-.127-4.207-.765-5.227-2.04zM19.378.255h5.738l4.207 22.438h-4.59l-.765-4.717h-3.315l-.765 4.717h-4.717L19.378.255zm4.08 14.789l-1.147-8.797-1.148 8.797h2.295zm9.434-11.092H29.45V.255h11.857v3.697h-3.442v18.741h-5.1V3.952zM50.359.255h8.796V2.55h-5.61v7.394h4.59v2.167h-4.59v8.16h5.738v2.295h-8.924V.255zm11.474 0H64l6.502 14.916V.255h2.677v22.438h-2.04L64.637 7.394v15.299H61.96V.255zm14.406 0h8.797V2.55h-5.61v7.394h4.59v2.167h-4.59v8.16h5.737v2.295H76.24V.255zm11.474 0h4.59c2.295 0 3.952.51 5.1 1.402 1.147.893 1.657 2.422 1.657 4.59 0 2.932-.893 4.59-2.805 5.227l3.187 11.219h-3.06L93.45 12.111h-2.422v10.582H87.84V.255zm4.335 9.689c1.402 0 2.295-.255 2.932-.765.638-.51.893-1.53.893-2.932 0-.893-.128-1.658-.255-2.168-.128-.51-.51-.892-1.148-1.147-.51-.255-1.275-.382-2.167-.382H90.9v7.394h1.148zm10.964 11.092c-.892-1.275-1.402-3.188-1.402-5.737V7.904c0-1.785.127-3.187.51-4.334.382-1.148 1.02-1.913 1.912-2.55.892-.638 2.167-.893 3.697-.893 2.04 0 3.57.51 4.59 1.53.892 1.02 1.402 2.677 1.402 4.972v.893h-2.932v-.765c0-1.02-.128-1.913-.255-2.423-.128-.637-.383-1.02-.893-1.274-.382-.383-1.02-.51-1.784-.51-.893 0-1.53.255-1.913.637-.382.383-.765.892-.892 1.53-.128.637-.128 1.53-.128 2.677v8.287c0 1.657.255 2.932.638 3.697.382.765 1.275 1.148 2.422 1.148 1.147 0 2.04-.383 2.422-1.275.383-.765.638-2.168.638-3.952v-1.53h-2.932V11.6h5.737v11.092h-2.04l-.255-2.55c-.765 1.913-2.04 2.805-4.08 2.805s-3.57-.637-4.462-1.912zm17.211-6.247L115.251.255h2.932l3.442 10.836L125.068.255H128l-4.845 14.534v7.904h-3.06v-7.904z"/></svg>
